<?xml version="1.0" standalone="no"?>
<!DOCTYPE svg PUBLIC "-//W3C//DTD SVG 20010904//EN"
 "http://www.w3.org/TR/2001/REC-SVG-20010904/DTD/svg10.dtd">
<svg version="1.0" xmlns="http://www.w3.org/2000/svg"
 width="1192.000000pt" height="1192.000000pt" viewBox="0 0 1192.000000 1192.000000"
 preserveAspectRatio="xMidYMid meet">
<metadata>
Created by potrace 1.11, written by Peter Selinger 2001-2013
</metadata>
<g transform="translate(0.000000,1192.000000) scale(0.100000,-0.100000)"
fill="#000000" stroke="none">
<path d="M9265 10225 c-111 -40 -135 -46 -146 -39 -6 3 -23 -5 -37 -19 -26
-24 -68 -34 -179 -41 -31 -2 -73 -30 -73 -48 0 -5 -11 -24 -24 -41 -13 -18
-26 -44 -30 -59 -15 -65 -109 -123 -184 -113 -26 3 -62 6 -80 5 -17 0 -40 3
-50 9 -9 5 -41 11 -70 15 -29 3 -63 12 -75 20 -48 31 -205 2 -221 -39 -3 -9
-16 -15 -33 -13 -34 2 -73 -18 -73 -37 0 -28 -181 -125 -218 -117 -6 2 -17 -8
-23 -21 -6 -14 -22 -31 -35 -38 -13 -7 -24 -20 -24 -30 0 -10 -12 -21 -29 -27
-37 -13 -91 -69 -84 -88 3 -8 -1 -14 -11 -14 -15 0 -71 -67 -84 -100 -9 -22
-82 -99 -101 -105 -9 -3 -23 -18 -31 -34 -30 -57 -91 -141 -110 -151 -22 -12
-53 -64 -43 -74 4 -3 -7 -25 -24 -49 -17 -23 -33 -58 -37 -78 -7 -41 -39 -79
-66 -79 -10 0 -21 -4 -24 -9 -3 -5 -20 -12 -38 -15 -20 -4 -55 -26 -87 -56
-29 -28 -57 -50 -61 -50 -5 0 -14 -17 -20 -37 -7 -21 -18 -45 -26 -53 -7 -8
-17 -27 -23 -43 -6 -15 -22 -32 -35 -38 -26 -12 -37 -34 -57 -109 -12 -46 -14
-57 -24 -125 -16 -106 -46 -198 -76 -232 -28 -33 -30 -39 -24 -88 5 -38 3 -60
-9 -83 -9 -17 -18 -48 -22 -69 -8 -55 -13 -85 -19 -113 -13 -55 -22 -120 -17
-120 16 0 -26 -31 -54 -40 -32 -11 -37 -10 -55 11 -11 12 -22 34 -26 48 -3 14
-21 44 -39 67 -37 50 -45 90 -40 195 3 60 9 83 29 113 22 32 28 68 13 83 -2 3
2 19 9 36 24 59 29 143 11 182 -17 36 -21 55 -31 159 -4 42 -2 64 8 80 15 22
14 78 -2 126 -4 14 -6 34 -5 45 6 30 5 127 0 152 -3 13 0 25 5 28 5 4 7 10 4
15 -3 5 -2 11 3 14 5 3 10 31 11 62 1 35 8 62 18 72 14 14 13 17 -6 33 -17 14
-20 26 -17 64 2 35 -1 51 -14 63 -9 10 -20 31 -23 48 -3 18 -9 43 -12 57 -6
22 -4 25 15 20 l21 -6 -22 39 c-12 22 -29 44 -37 51 -12 10 -11 16 4 43 16 27
17 33 4 53 -8 12 -15 45 -16 72 -1 28 -8 66 -15 85 -7 19 -12 38 -11 42 1 4
-23 34 -53 66 -48 52 -62 61 -120 77 -36 9 -71 26 -78 36 -8 11 -23 17 -40 15
-15 -2 -60 8 -99 22 -40 14 -94 25 -121 25 -41 1 -57 -6 -120 -49 -39 -28 -72
-55 -73 -60 -2 -31 -33 -67 -73 -86 -25 -12 -58 -33 -73 -47 -16 -14 -28 -21
-28 -16 0 5 -11 -2 -25 -15 -19 -18 -22 -26 -14 -37 9 -9 7 -14 -5 -19 -17 -7
-126 -164 -126 -181 0 -6 -8 -18 -19 -27 -10 -9 -24 -37 -31 -62 -7 -25 -26
-58 -41 -74 -15 -15 -26 -30 -23 -33 3 -3 -4 -23 -16 -46 -11 -23 -18 -41 -16
-41 2 0 -7 -30 -21 -67 -27 -74 -33 -141 -20 -216 8 -45 7 -49 -23 -73 -16
-14 -28 -30 -24 -35 8 -13 -13 -11 -35 3 -15 9 -22 8 -35 -5 -9 -8 -16 -18
-16 -21 0 -3 -17 -32 -37 -63 -20 -32 -36 -59 -35 -60 1 -2 2 -15 2 -29 0 -16
-11 -36 -30 -52 -30 -26 -39 -57 -20 -64 7 -2 6 -23 -3 -64 -16 -67 -33 -104
-47 -104 -6 0 -10 -6 -10 -14 0 -8 -15 -31 -34 -50 -18 -20 -45 -53 -59 -73
-26 -39 -49 -107 -39 -117 3 -3 -2 -6 -11 -6 -11 0 -18 -12 -23 -37 -3 -21
-17 -55 -30 -75 -13 -21 -24 -42 -24 -46 0 -13 -105 -167 -158 -231 -23 -29
-45 -65 -49 -79 -3 -14 -32 -51 -64 -81 -85 -82 -105 -98 -133 -105 -15 -3
-26 -12 -27 -19 -3 -50 -17 -71 -26 -39 -5 21 -7 22 -29 7 -17 -11 -24 -12
-24 -4 0 7 -3 9 -7 6 -3 -4 -12 -2 -19 4 -10 8 -13 5 -11 -16 2 -25 -1 -27
-45 -29 -27 -1 -48 1 -48 5 0 10 -71 37 -115 44 -22 4 -62 19 -90 35 -66 37
-146 36 -218 -5 -47 -27 -52 -28 -150 -21 -90 5 -142 11 -142 16 0 1 -16 3
-35 6 -51 6 -75 21 -93 59 -9 19 -38 51 -65 72 -27 21 -55 46 -61 56 -11 17
-9 18 18 14 41 -7 41 13 0 47 -17 14 -29 26 -27 27 2 0 11 2 21 4 30 6 32 14
8 46 l-23 30 26 52 c14 29 27 66 28 82 3 25 7 30 28 27 16 -2 30 5 41 19 9 12
29 23 45 24 16 2 59 6 96 9 37 3 99 13 139 21 39 8 119 17 178 20 209 10 257
19 296 55 11 11 42 28 68 40 26 12 57 34 69 50 23 32 66 56 117 65 19 3 41 10
51 15 9 5 30 12 46 15 45 9 47 10 82 28 17 10 32 15 32 12 0 -3 13 1 29 10 24
12 31 24 36 59 14 90 -36 130 -175 142 -57 5 -68 3 -89 -15 -13 -12 -32 -22
-43 -22 -10 -1 -24 -2 -30 -3 -7 -1 -23 2 -34 7 -15 6 -29 4 -47 -7 -13 -9
-29 -16 -33 -15 -25 4 -44 -3 -44 -16 0 -19 -10 -19 -35 -1 -35 24 -113 33
-320 36 -128 2 -165 10 -165 35 0 9 -8 18 -17 22 -34 12 -83 54 -99 86 -9 18
-21 35 -27 38 -13 9 -11 93 2 97 6 2 11 10 11 18 0 8 5 14 11 14 5 0 7 5 4 10
-4 6 -10 8 -15 5 -5 -3 -13 2 -18 11 -9 17 2 78 18 99 7 10 6 22 -5 61 -5 16
-2 23 13 26 13 4 20 13 18 24 -7 48 51 177 86 192 4 2 8 10 8 18 0 8 4 14 9
14 5 0 11 8 14 19 2 10 17 21 33 25 16 4 45 20 64 35 19 16 46 32 60 36 93 29
151 67 244 160 81 82 100 96 120 91 15 -4 32 1 47 13 26 20 60 29 124 33 22 1
52 10 67 20 14 10 33 18 42 18 9 0 16 3 17 8 0 4 2 15 4 26 6 29 -4 44 -56 82
-42 30 -59 37 -111 40 -34 2 -68 6 -77 9 -17 5 -50 10 -136 20 -27 3 -65 8
-83 11 -18 3 -80 7 -138 8 -92 2 -134 -1 -244 -18 -49 -8 -89 -28 -105 -52
-15 -23 -17 -23 -49 -10 l-34 14 -27 -40 c-18 -28 -42 -47 -79 -63 -46 -20
-55 -29 -74 -74 -14 -33 -32 -57 -54 -71 -53 -32 -74 -34 -120 -10 -24 13 -63
33 -88 46 -25 12 -55 32 -65 44 -36 40 -71 47 -214 43 -80 -1 -137 -7 -141
-13 -4 -7 -11 -6 -20 4 -13 16 -67 34 -114 38 -14 1 -26 6 -26 10 0 4 -11 8
-24 8 -14 0 -28 5 -31 10 -3 6 -14 10 -24 10 -10 0 -26 9 -36 20 -10 11 -24
20 -30 20 -7 0 -18 7 -25 15 -7 9 -15 13 -17 11 -3 -3 -17 0 -32 6 -31 12 -54
17 -101 23 -38 5 -160 44 -173 56 -5 4 -23 3 -40 -1 -34 -9 -60 -8 -118 4 -27
6 -43 3 -71 -14 -38 -22 -58 -28 -123 -36 -22 -3 -57 -12 -78 -20 -39 -14
-193 -29 -307 -29 -39 0 -68 -4 -73 -12 -5 -8 -17 -9 -37 -3 -34 10 -182 5
-225 -7 -16 -5 -39 -8 -50 -8 -11 0 -27 -6 -35 -15 -22 -24 -93 -58 -137 -66
-47 -8 -96 -41 -89 -60 3 -8 2 -14 -2 -15 -54 -5 -101 -27 -82 -39 15 -10 2
-37 -40 -78 -36 -36 -33 -48 27 -111 24 -26 46 -54 49 -63 3 -10 10 -18 16
-18 6 0 9 -2 6 -5 -15 -15 23 -80 68 -116 27 -21 54 -44 61 -49 7 -6 16 -10
22 -10 5 0 28 -18 51 -40 23 -22 45 -40 49 -40 3 0 24 -14 45 -31 25 -22 34
-34 26 -39 -10 -6 30 -32 90 -59 3 -1 23 5 45 15 22 9 42 16 45 15 14 -3 80
25 115 49 40 27 105 54 105 43 0 -3 6 -1 12 4 16 12 102 40 143 46 17 3 52 11
78 17 77 20 234 9 293 -21 40 -20 50 -32 67 -74 10 -27 21 -80 24 -117 4 -62
2 -72 -32 -140 -46 -91 -113 -183 -194 -268 -33 -35 -61 -68 -61 -72 0 -4 -22
-33 -50 -63 -27 -30 -50 -63 -50 -72 0 -15 -2 -14 -19 1 -23 21 -45 12 -38
-16 4 -14 -1 -22 -19 -28 -13 -5 -24 -16 -24 -23 0 -8 -8 -25 -18 -38 -12 -15
-17 -35 -15 -56 3 -26 -3 -37 -36 -69 -39 -35 -47 -50 -55 -91 -25 -130 -70
-188 -168 -218 -5 -1 -11 -4 -15 -5 -5 -1 -15 -2 -23 -1 -9 1 -31 -10 -50 -24
-18 -14 -40 -25 -47 -25 -7 0 -12 -3 -12 -7 4 -26 -5 -41 -36 -57 -21 -12 -41
-34 -54 -61 -26 -56 -64 -192 -64 -232 0 -23 -6 -35 -19 -39 -10 -3 -16 -9
-13 -14 3 -5 1 -11 -4 -14 -12 -8 -22 -60 -26 -131 -2 -33 -8 -71 -13 -86 -19
-48 6 -319 29 -319 5 0 9 -5 9 -11 0 -19 78 -86 128 -109 26 -12 49 -26 52
-30 16 -25 222 -112 295 -125 17 -2 41 -7 55 -10 46 -10 104 -16 200 -19 74
-3 117 2 195 20 119 29 155 42 155 59 0 6 9 20 20 30 11 10 20 15 20 10 0 -4
6 -3 13 2 18 15 105 41 157 48 25 4 173 7 330 8 157 1 290 5 296 9 7 4 29 11
50 14 48 8 69 12 69 14 0 4 61 14 155 24 37 4 207 98 230 127 10 13 130 33
180 30 8 -1 24 -1 35 -1 19 1 31 1 58 -1 23 -1 192 11 216 15 13 3 45 1 70 -5
70 -15 104 -17 124 -7 11 6 17 5 17 -2 0 -6 4 -8 10 -5 8 5 53 6 155 4 19 0
41 2 159 16 56 7 93 24 119 55 10 12 24 19 32 17 7 -3 23 5 36 19 20 22 24 22
39 9 15 -14 20 -13 46 11 16 14 45 37 64 52 19 15 38 31 41 35 3 5 9 9 12 8 4
0 25 8 47 17 28 12 43 25 47 42 7 28 33 54 76 76 15 8 27 19 27 24 0 5 13 8
29 6 26 -3 30 0 35 29 5 23 15 36 34 44 15 6 41 24 59 39 17 15 39 32 48 37 9
6 18 19 20 30 2 11 4 21 5 23 3 2 4 6 13 55 9 43 13 45 37 15 l18 -23 20 45
c10 25 29 66 41 92 11 26 21 49 21 52 0 3 13 20 30 38 16 18 33 48 36 68 3 19
13 46 21 58 8 13 12 26 9 29 -3 3 3 18 13 32 19 26 28 51 36 92 3 13 20 46 39
74 18 27 35 56 38 64 2 7 44 34 93 60 85 45 90 49 88 78 -2 17 4 36 12 43 7 6
11 18 8 26 -3 7 2 17 11 20 11 4 16 19 16 46 0 23 4 37 10 33 9 -5 45 61 42
78 -1 4 3 7 8 7 6 0 10 6 10 13 0 7 13 20 29 30 24 14 29 23 25 44 -3 18 2 34
18 52 13 14 25 40 27 56 8 75 70 125 155 125 57 0 90 -15 107 -49 7 -14 22
-39 32 -54 12 -18 20 -48 21 -78 0 -27 5 -49 10 -49 5 0 4 -6 -2 -13 -6 -7 -7
-18 -3 -26 5 -8 5 -27 1 -42 -5 -16 -6 -29 -2 -29 4 0 7 -116 6 -258 0 -141 3
-261 7 -267 3 -5 1 -32 -7 -60 -14 -54 -18 -128 -7 -139 4 -3 8 -12 9 -19 5
-28 33 -128 39 -137 3 -5 8 -18 10 -27 9 -33 56 -168 68 -193 7 -14 21 -35 32
-48 11 -13 20 -28 20 -33 0 -5 7 -14 15 -19 8 -5 15 -19 15 -32 1 -13 4 -28 7
-34 3 -5 -1 -31 -10 -57 -11 -36 -12 -51 -4 -56 6 -4 18 -26 26 -49 16 -45 37
-72 56 -72 6 0 9 -4 5 -9 -6 -10 11 -24 35 -28 21 -3 61 -24 92 -49 27 -22 37
-23 103 -3 17 4 46 11 65 14 19 3 43 16 53 28 10 12 37 44 60 71 23 27 56 69
72 93 35 49 49 57 77 42 26 -14 35 -1 33 44 -3 39 10 57 41 57 40 0 124 96
124 143 0 8 11 26 24 40 13 14 29 41 35 59 6 18 22 45 35 60 14 14 23 28 20
30 -2 3 14 24 36 48 39 42 51 70 30 70 -15 0 -12 19 5 36 8 9 15 25 15 37 0
19 10 53 36 130 4 9 9 17 13 17 4 0 7 18 8 40 0 22 5 46 11 53 5 6 13 26 17
44 4 19 23 47 46 67 40 36 49 61 27 69 -7 2 9 19 36 38 76 53 186 149 186 164
0 7 7 18 15 25 8 7 15 21 15 32 0 11 13 26 30 36 18 10 41 40 60 76 26 53 28
61 15 80 -19 26 -19 36 0 36 9 0 19 10 24 23 13 34 66 87 88 87 20 1 52 39 58
72 8 41 45 50 45 11 0 -27 40 -64 59 -54 23 12 79 -6 86 -28 3 -10 -1 -33 -8
-52 -18 -49 -15 -88 25 -254 21 -85 55 -153 92 -184 9 -8 16 -17 16 -21 0 -16
-45 -19 -67 -5 -12 8 -28 12 -35 10 -13 -5 -23 -59 -18 -95 1 -8 1 -33 -1 -55
-4 -84 -2 -232 6 -286 6 -43 4 -58 -7 -70 -9 -9 -12 -22 -8 -34 8 -23 2 -99
-11 -141 -5 -18 -7 -44 -3 -58 3 -15 7 -48 9 -74 3 -55 11 -78 31 -86 8 -3 14
-14 14 -25 0 -13 28 -44 79 -86 43 -35 97 -86 119 -112 33 -38 42 -43 48 -30
5 15 9 15 36 1 27 -14 32 -14 54 1 13 8 23 21 21 28 -1 8 11 12 33 12 31 0 35
3 33 25 -15 175 -10 217 29 239 15 9 36 33 45 53 12 28 20 35 29 27 17 -14 34
19 34 66 0 40 -45 145 -62 145 -6 0 -8 3 -5 7 4 3 2 12 -4 19 -6 7 -12 41 -14
74 -3 60 -2 62 27 78 48 26 76 56 93 96 9 20 28 50 42 67 35 39 113 86 149 91
16 1 37 13 47 25 16 20 20 21 52 7 19 -8 44 -14 55 -14 11 0 20 -3 20 -8 0 -4
12 -21 28 -38 15 -16 41 -48 57 -69 66 -88 290 -294 352 -326 16 -7 44 -26 63
-41 19 -16 40 -28 46 -28 12 0 109 -75 146 -112 10 -10 22 -18 27 -18 22 0 35
-82 37 -225 2 -145 5 -181 20 -227 7 -23 29 -50 39 -47 13 3 65 -24 65 -33 0
-6 7 -8 15 -4 8 3 15 1 15 -5 0 -6 3 -8 8 -5 4 2 48 7 97 11 97 6 122 11 142
29 7 6 18 16 25 22 7 5 27 28 43 49 39 51 76 89 98 101 15 8 16 15 8 35 -8 20
-16 41 -26 69 -1 3 -6 25 -10 49 -5 27 -14 45 -24 48 -10 2 -17 17 -18 37 -2
18 -10 52 -18 76 -8 24 -12 46 -7 49 4 3 14 26 22 51 7 25 16 52 18 60 10 32
12 259 2 265 -16 10 -12 22 11 28 12 3 18 10 14 16 -3 6 -7 44 -9 84 -2 40 -7
81 -13 92 -7 14 -7 30 1 51 25 71 95 120 185 130 25 3 60 9 76 14 17 5 62 12
100 15 39 3 84 8 100 12 86 17 230 24 255 12 8 -4 35 -10 60 -13 25 -4 63 -11
85 -17 22 -6 56 -14 76 -18 19 -4 40 -11 46 -14 5 -4 28 -9 49 -11 21 -3 53
-10 70 -15 39 -11 101 -8 116 7 8 8 15 7 25 -4 11 -10 19 -11 34 -4 23 13 40
5 33 -14 -3 -9 5 -13 28 -14 18 -1 40 -2 48 -2 17 -1 49 3 100 15 51 11 180
65 180 76 0 5 14 9 30 9 17 0 30 3 30 8 0 4 16 16 34 26 55 30 80 61 72 91
-12 47 -60 79 -146 100 -23 5 -109 16 -175 21 -44 3 -102 8 -130 10 -27 2 -73
6 -101 8 -66 5 -206 53 -224 76 -3 4 -30 13 -60 20 -30 7 -71 21 -91 31 -36
18 -77 30 -111 32 -10 1 -18 4 -18 7 0 7 -85 4 -98 -4 -6 -3 -13 -2 -16 3 -7
11 -56 4 -70 -10 -15 -14 -44 -11 -71 7 -14 9 -44 16 -67 16 -48 1 -148 -15
-164 -25 -6 -3 -26 -9 -44 -12 -19 -3 -39 -10 -45 -15 -12 -10 -23 -4 -109 53
-76 50 -84 73 -87 254 -1 89 -4 106 -25 137 -22 32 -23 36 -7 45 14 7 15 13 6
34 -10 20 -8 28 10 45 20 21 20 21 1 29 -39 15 -48 31 -29 59 16 25 16 27 -4
48 -27 29 -26 36 4 36 27 0 31 10 16 38 -25 45 -63 140 -68 167 -7 42 -9 47
-21 76 -11 28 -111 119 -131 119 -6 0 -11 4 -11 9 0 16 -47 29 -114 33 -27 1
-28 2 -11 15 11 7 22 13 27 13 18 0 6 30 -27 66 -19 22 -37 46 -40 54 -3 8
-21 26 -40 40 -19 14 -35 30 -35 35 -1 14 -54 71 -78 84 -20 10 -65 19 -137
27 -26 2 -64 -5 -110 -21z m-6886 -801 c31 -11 72 -37 97 -61 24 -22 49 -43
55 -45 8 -3 6 -16 -5 -43 -16 -38 -16 -40 6 -56 22 -17 22 -18 6 -70 -10 -29
-15 -56 -12 -61 3 -4 1 -8 -3 -8 -5 0 -9 -8 -9 -17 -2 -29 -11 -66 -28 -105
-9 -21 -16 -44 -16 -52 0 -33 -72 -164 -96 -175 -23 -10 -29 -8 -60 24 -19 20
-47 38 -63 41 -19 4 -29 12 -29 23 1 26 -6 44 -26 66 -27 30 -45 76 -37 100
15 48 -4 160 -31 179 -16 11 -16 15 -4 25 8 7 20 34 26 62 7 27 16 52 22 55 5
3 3 15 -6 29 -13 20 -13 25 -1 35 8 7 15 18 15 26 0 13 32 36 47 33 4 -1 15 1
23 4 44 17 59 17 129 -9z m7074 -18 c20 -2 49 -12 63 -21 15 -9 39 -18 55 -19
50 -4 99 -70 99 -135 0 -14 9 -54 19 -88 14 -46 17 -72 11 -100 -10 -40 -5
-241 6 -275 3 -12 19 -42 34 -69 27 -44 27 -48 12 -70 -18 -27 -53 -55 -64
-51 -4 1 -29 4 -55 7 -27 3 -61 10 -78 15 -79 23 -212 16 -241 -12 -3 -4 -18
-5 -33 -3 -53 9 -108 16 -164 20 -32 3 -82 12 -110 20 -29 9 -70 18 -91 21
-22 3 -52 12 -67 20 -15 8 -33 14 -40 14 -18 0 -113 48 -135 68 -11 9 -31 23
-46 29 -16 7 -34 28 -43 50 -9 20 -19 40 -23 43 -5 3 -17 19 -29 35 -19 27
-20 34 -8 60 15 37 111 127 153 144 17 7 34 21 37 32 3 10 15 21 26 24 10 4
19 12 19 18 0 7 12 25 26 41 20 21 29 25 35 15 9 -16 9 -16 39 39 19 34 29 42
52 42 16 0 27 3 25 8 -10 14 91 74 135 79 23 2 45 6 47 9 4 4 262 -4 334 -10z
m-7103 -757 c21 -23 41 -57 45 -75 7 -40 -1 -118 -19 -178 -8 -26 -12 -66 -9
-93 13 -114 -7 -230 -57 -338 -20 -43 -25 -64 -18 -72 7 -9 6 -20 -5 -37 -13
-18 -31 -151 -29 -211 0 -26 15 -141 18 -147 2 -3 7 -28 10 -54 3 -27 11 -57
17 -69 6 -11 12 -27 13 -35 3 -47 48 -128 104 -190 55 -61 90 -123 90 -161 0
-22 -38 -69 -56 -69 -3 0 -13 -7 -21 -16 -9 -8 -19 -12 -22 -7 -8 11 -31 15
-31 4 0 -4 -19 -21 -42 -37 -24 -16 -47 -35 -51 -42 -6 -9 -18 -11 -35 -7 -15
4 -47 9 -71 11 -23 2 -50 8 -60 13 -35 19 -96 24 -358 28 l-273 5 -92 -33
c-74 -26 -102 -42 -136 -76 -71 -72 -156 -70 -270 6 -29 20 -63 41 -75 48 -34
19 -47 60 -32 103 7 20 15 54 17 77 6 44 8 49 55 111 18 24 37 60 43 82 8 28
16 40 33 42 16 2 32 23 59 73 21 39 45 84 53 100 9 17 40 47 68 66 61 42 146
58 235 44 19 -2 38 -8 44 -11 17 -11 80 -16 115 -9 42 8 55 45 27 77 -19 21
-19 21 9 14 26 -6 38 6 17 19 -15 9 -12 57 5 78 16 21 10 47 -11 47 -18 0 -18
26 0 33 15 6 26 40 46 142 7 33 17 66 22 73 6 6 8 12 4 12 -10 0 19 52 48 85
22 26 29 28 45 18 16 -10 23 -8 45 13 14 15 28 35 31 45 4 10 12 19 18 19 18
0 72 88 92 150 26 80 36 100 72 149 19 25 33 56 33 72 0 39 17 80 41 97 11 8
18 20 15 27 -5 15 10 18 97 23 46 3 51 1 87 -39z m7112 -455 c32 3 60 1 63 -4
4 -6 19 -10 34 -10 19 0 32 -8 40 -24 7 -13 24 -29 37 -35 22 -10 32 -40 24
-76 -3 -16 -2 -38 4 -80 12 -84 13 -80 -19 -80 -17 -1 -42 9 -58 22 -15 12
-47 28 -70 34 -44 11 -80 36 -72 50 7 11 -23 39 -42 39 -21 0 -73 55 -73 77
-1 10 -7 35 -14 55 -16 44 -9 49 49 36 22 -5 66 -7 97 -4z"/>
<path d="M9783 6083 c-7 -3 -13 -11 -13 -19 0 -17 -17 -19 -22 -2 -3 9 -16 5
-41 -12 -20 -14 -37 -28 -37 -32 0 -4 -14 -15 -31 -23 -25 -13 -28 -19 -19
-31 8 -9 10 -27 5 -51 -22 -119 -23 -139 -8 -171 14 -28 14 -33 -1 -48 -18
-17 -16 -53 6 -126 14 -48 -4 -77 -73 -117 l-51 -29 28 -16 c16 -8 27 -16 24
-16 -29 -7 -40 -7 -40 1 0 5 -8 9 -17 9 -17 -1 -101 -131 -96 -149 1 -5 -9
-14 -22 -21 -14 -7 -25 -17 -25 -22 0 -5 -4 -7 -10 -3 -23 14 -42 -172 -29
-300 3 -36 -1 -45 -20 -45 -16 0 -56 -13 -116 -40 -11 -4 -34 -14 -52 -21 -29
-12 -53 -44 -53 -71 0 -6 -6 -19 -13 -27 -7 -9 -26 -58 -42 -109 -16 -51 -33
-96 -37 -98 -4 -3 -8 -13 -8 -22 0 -15 -51 -105 -77 -137 -44 -53 -63 -86 -63
-109 0 -43 -49 -127 -105 -181 -47 -45 -85 -106 -85 -134 0 -6 -8 -11 -18 -11
-20 0 -64 -33 -63 -47 1 -15 -10 -43 -17 -43 -4 0 -16 7 -26 15 -11 8 -26 15
-32 15 -11 0 -68 33 -99 58 -80 63 -95 78 -91 89 3 8 -4 17 -17 22 -12 5 -28
20 -35 33 -7 13 -26 29 -41 36 -16 7 -54 35 -85 62 -32 28 -67 51 -79 51 -127
7 -139 5 -200 -23 -33 -16 -67 -38 -74 -48 -23 -33 -44 -50 -54 -44 -5 3 -25
0 -44 -6 -26 -8 -41 -23 -56 -51 l-20 -40 -29 18 c-28 16 -31 16 -59 0 -19
-11 -32 -14 -36 -7 -9 14 -21 12 -40 -6 -9 -9 -31 -20 -48 -23 -25 -6 -32 -12
-32 -31 0 -14 -4 -31 -8 -38 -10 -15 -30 -5 -21 10 4 7 -11 9 -45 7 -41 -3
-51 -1 -51 12 0 21 -28 45 -63 53 -16 4 -40 18 -55 33 -25 25 -25 26 -7 39 18
14 18 15 -4 45 -26 35 -23 46 8 29 12 -6 21 -9 22 -8 0 2 2 11 4 21 2 11 5 20
7 21 2 1 21 14 43 28 22 15 66 37 98 48 68 26 112 61 164 133 20 29 50 66 66
82 16 17 46 60 68 96 41 72 74 95 149 105 23 3 47 7 55 8 8 1 23 10 35 21 15
14 23 16 32 7 24 -24 54 10 65 73 5 29 30 70 65 109 10 11 18 26 18 33 0 7 10
33 22 58 18 38 20 49 10 65 -16 26 -15 40 3 40 27 0 62 22 78 49 29 49 98 111
123 111 13 0 41 15 61 34 38 33 122 90 135 91 3 0 10 3 14 8 4 4 15 7 25 7 11
0 23 15 34 43 14 39 15 46 0 80 -8 20 -12 37 -9 37 4 0 0 8 -9 18 -8 9 -15 19
-15 22 2 9 -27 50 -35 50 -5 0 -27 15 -50 34 -43 35 -97 55 -132 50 -53 -8
-72 -7 -92 4 -14 8 -23 9 -23 3 0 -6 -27 -9 -67 -8 -55 2 -69 -1 -85 -17 -10
-11 -28 -21 -40 -23 -59 -9 -89 -57 -70 -112 9 -26 8 -31 -10 -37 -50 -16 -97
-93 -113 -187 -5 -31 -12 -40 -36 -49 -16 -5 -27 -13 -24 -18 2 -4 -17 -7 -44
-7 -28 0 -58 -7 -71 -16 -17 -12 -29 -13 -48 -6 -31 12 -59 3 -67 -20 -8 -26
-35 -54 -70 -75 -36 -21 -75 -74 -75 -101 0 -10 -7 -26 -16 -36 -8 -9 -18 -39
-22 -65 -6 -38 -12 -50 -27 -53 -11 -2 -32 -12 -47 -23 -22 -15 -42 -18 -101
-17 -41 1 -79 -1 -85 -5 -5 -3 -28 1 -50 8 -22 8 -49 13 -59 11 -10 -2 -28 -4
-41 -4 -14 -1 -27 -11 -35 -28 -6 -16 -15 -31 -20 -34 -4 -3 -9 -15 -11 -26
-3 -11 -9 -29 -14 -39 -36 -70 -45 -106 -49 -199 -5 -115 -7 -125 -28 -125
-14 0 -72 -35 -85 -51 -3 -4 -27 -19 -55 -34 -27 -16 -52 -31 -55 -35 -8 -10
-100 -53 -119 -55 -58 -6 -86 -33 -106 -103 -8 -26 -62 -70 -102 -81 -31 -9
-76 10 -104 44 -9 11 -26 31 -38 44 -12 13 -21 30 -21 38 0 7 -7 16 -15 19 -8
4 -15 12 -15 19 0 20 -89 75 -124 76 -17 1 -105 1 -195 0 -124 -2 -166 1 -172
11 -6 10 -15 10 -41 1 -18 -7 -55 -15 -82 -18 -27 -4 -57 -10 -66 -15 -9 -5
-25 -9 -36 -9 -45 -1 -57 -6 -71 -27 -12 -18 -19 -21 -33 -14 -9 5 -19 8 -21
6 -2 -2 -20 -7 -39 -10 -19 -3 -58 -10 -86 -16 -55 -12 -47 -15 -156 55 -31
20 -71 86 -83 137 -7 29 -1 33 65 41 18 3 34 18 55 54 41 67 130 143 159 135
5 -2 16 4 25 11 9 8 43 29 76 47 33 18 84 53 113 77 45 39 62 48 93 52 4 1 18
13 32 27 23 23 28 24 33 10 6 -16 34 -23 34 -8 0 11 72 47 85 42 19 -6 88 1
107 11 10 5 18 17 18 25 0 8 4 13 10 9 5 -3 27 10 48 30 22 19 44 35 50 35 6
0 13 13 17 30 8 35 71 101 119 124 18 8 39 22 45 30 6 7 25 19 41 26 17 7 30
19 30 26 0 8 4 14 8 14 5 0 16 15 25 33 10 17 29 48 42 67 43 60 48 68 48 76
2 22 23 31 52 23 42 -12 41 -13 54 32 11 36 16 40 37 36 25 -4 30 6 18 38 -10
25 -143 83 -204 90 -95 9 -134 17 -161 31 -18 9 -29 10 -36 3 -7 -7 -20 -6
-42 5 -37 20 -88 25 -120 14 -13 -5 -56 -4 -100 3 -78 11 -85 11 -161 8 -37
-1 -51 -8 -81 -38 -41 -41 -66 -61 -74 -61 -3 0 -31 -18 -63 -39 -31 -22 -70
-43 -85 -46 -15 -4 -32 -15 -37 -25 -11 -20 -94 -64 -125 -66 -61 -3 -168 -75
-151 -102 14 -23 -51 -62 -105 -62 -17 0 -29 -5 -29 -13 0 -8 -17 -22 -37 -33
-25 -13 -38 -27 -39 -42 -1 -12 -2 -28 -3 -34 0 -7 -15 -13 -34 -14 -17 0 -55
-11 -84 -24 -45 -21 -54 -31 -73 -76 -25 -58 -76 -94 -134 -94 -34 0 -59 -20
-70 -55 -6 -22 -71 -95 -83 -95 -5 0 -27 -18 -51 -40 -24 -22 -47 -40 -52 -40
-5 0 -29 -20 -54 -45 -39 -40 -43 -49 -36 -73 5 -19 3 -34 -6 -47 -8 -10 -14
-15 -14 -11 0 5 -6 4 -12 -2 -7 -5 -40 -17 -73 -26 -81 -23 -126 -45 -150 -72
-11 -13 -32 -27 -47 -33 -17 -6 -28 -18 -28 -30 0 -10 -7 -24 -15 -31 -8 -7
-15 -10 -15 -6 0 3 -11 -4 -25 -16 -14 -12 -25 -28 -25 -35 0 -7 -18 -20 -40
-29 -22 -9 -50 -29 -61 -45 -22 -31 -39 -30 -39 2 0 10 -5 19 -10 19 -6 0 -29
12 -51 26 -44 27 -65 67 -74 134 -3 23 -9 50 -15 60 -5 10 -10 33 -10 50 0 17
-5 41 -11 52 -6 12 -13 35 -14 53 -2 18 -13 53 -24 78 -12 25 -21 52 -21 59 0
7 -11 30 -25 50 -14 21 -28 52 -32 69 -3 18 -15 35 -29 41 -12 6 -35 31 -51
56 -15 24 -42 54 -59 66 -96 65 -163 128 -174 164 -7 20 -21 56 -32 79 -17 38
-24 60 -27 85 -1 4 -12 19 -26 34 -14 15 -25 32 -25 38 0 27 -183 141 -245
152 -16 3 -34 9 -40 13 -5 5 -32 11 -58 14 -27 4 -54 10 -60 16 -34 27 -165
45 -219 30 -24 -6 -56 -13 -72 -16 -43 -7 -74 -20 -110 -48 -22 -16 -61 -31
-109 -40 -92 -17 -142 -40 -183 -82 -37 -37 -59 -43 -51 -13 3 11 2 20 -3 20
-4 0 -11 -11 -14 -25 -3 -13 -24 -41 -45 -62 -21 -21 -41 -50 -45 -65 -6 -27
-34 -49 -69 -55 -10 -2 -31 -9 -46 -17 -15 -8 -41 -14 -58 -14 -36 1 -76 -27
-111 -78 -18 -27 -28 -33 -43 -29 -20 7 -42 -11 -76 -63 -19 -28 -26 -78 -13
-101 7 -14 4 -23 -14 -37 -13 -10 -31 -31 -40 -46 -11 -17 -23 -25 -33 -21
-12 5 -14 1 -8 -18 4 -13 9 -56 10 -97 2 -40 9 -87 15 -103 9 -21 10 -33 3
-40 -8 -8 -7 -19 2 -36 9 -18 11 -47 7 -97 -3 -39 -6 -99 -6 -133 -1 -35 -3
-63 -6 -63 -3 0 -6 -10 -7 -21 -1 -12 -9 -29 -17 -38 -15 -17 -16 -39 -2 -232
3 -36 -1 -66 -9 -83 -8 -14 -10 -26 -5 -26 5 0 2 -19 -6 -42 -9 -24 -17 -68
-20 -98 -2 -30 -7 -84 -10 -120 -7 -69 -7 -134 -1 -215 2 -28 -3 -65 -10 -85
-8 -19 -13 -49 -11 -65 1 -17 -1 -36 -6 -43 -4 -6 -4 -17 -1 -23 4 -5 -5 -34
-20 -64 -14 -30 -25 -60 -24 -67 3 -27 -1 -38 -16 -38 -8 0 -23 -12 -32 -27
-10 -16 -27 -36 -38 -46 -20 -18 -20 -18 13 -13 37 6 36 9 17 -38 -13 -31 -14
-40 -1 -64 8 -15 16 -58 19 -97 5 -80 13 -105 33 -105 19 0 18 -7 -6 -32 -10
-11 -22 -35 -26 -52 -3 -17 -11 -36 -16 -43 -10 -13 -8 -65 4 -73 3 -3 0 -21
-6 -41 -9 -25 -10 -43 -3 -54 6 -12 5 -30 -4 -57 -10 -31 -10 -43 -1 -56 7
-10 19 -33 28 -54 8 -20 37 -55 62 -77 61 -54 64 -56 93 -71 36 -19 79 -70
101 -120 10 -24 22 -47 26 -50 4 -3 14 -18 22 -35 27 -55 72 -92 111 -91 25 1
35 6 37 21 2 11 10 27 16 35 19 23 66 141 69 175 2 17 6 37 9 45 29 81 29 88
9 147 -11 32 -26 59 -35 61 -21 5 -66 103 -65 143 1 19 -6 54 -15 79 -13 38
-14 55 -4 105 6 33 18 64 26 69 9 5 11 11 4 15 -16 9 -18 219 -3 256 7 17 12
53 12 82 0 51 17 82 38 68 15 -8 22 31 18 95 -4 58 8 120 22 120 5 0 14 19 20
43 17 59 90 105 157 98 7 -1 29 -28 49 -60 34 -54 68 -79 97 -73 5 1 8 -3 8
-9 0 -5 4 -7 10 -4 5 3 19 1 31 -5 17 -10 179 -17 214 -10 6 1 17 2 25 1 22
-1 145 -123 204 -201 28 -36 92 -108 143 -160 51 -52 107 -115 124 -140 18
-25 36 -47 41 -48 4 -2 8 -9 8 -16 0 -7 13 -22 29 -33 15 -12 42 -46 59 -75
16 -29 40 -64 52 -78 45 -51 74 -105 75 -145 1 -22 8 -53 15 -70 7 -16 12 -34
11 -39 -4 -19 12 -46 28 -46 24 0 71 -37 71 -56 0 -8 11 -19 24 -25 36 -17 64
-76 71 -154 4 -38 11 -79 16 -92 8 -22 54 -68 67 -68 9 -1 60 -33 87 -55 11
-9 27 -16 35 -15 8 1 21 3 27 3 13 2 45 64 48 94 1 10 8 24 15 33 7 8 9 15 6
15 -4 0 -2 8 3 18 5 10 12 38 16 62 4 25 8 52 10 60 1 8 -3 26 -9 38 -8 19 -7
26 7 33 26 15 31 73 13 153 -10 39 -15 85 -13 101 4 34 -20 95 -39 95 -14 0
-67 41 -60 47 2 3 13 0 24 -6 20 -11 25 -7 122 94 23 23 26 41 8 47 -6 2 5 14
24 26 44 28 51 43 31 72 -9 12 -12 25 -6 29 8 5 10 28 3 41 -1 3 -4 22 -5 43
-2 21 -12 48 -22 59 -14 16 -18 35 -16 93 1 40 6 89 11 109 11 37 9 157 -3
239 -6 39 -5 47 8 47 21 0 31 18 19 33 -14 17 -13 282 2 323 17 51 68 99 107
102 18 1 38 7 43 12 10 8 44 17 129 35 17 3 31 15 37 30 5 14 20 30 32 36 55
25 90 49 116 77 15 16 52 43 82 60 30 16 66 35 80 43 14 7 27 14 30 15 3 0 23
9 45 19 48 22 154 27 211 10 23 -7 76 -36 119 -64 42 -29 83 -50 90 -47 8 3
19 -1 25 -9 12 -15 59 -27 235 -59 32 -6 72 -24 79 -35 4 -6 30 -11 59 -11 29
0 75 0 102 -1 28 -1 61 1 75 3 14 3 31 1 37 -4 17 -13 78 -2 93 17 14 16 35
21 25 6 -7 -12 4 -19 45 -26 36 -6 74 -30 106 -67 29 -34 34 -63 16 -90 -17
-24 -17 -52 -1 -105 7 -21 7 -38 0 -50 -5 -10 -11 -43 -12 -73 -3 -62 -18
-121 -34 -132 -5 -4 -21 -8 -35 -8 -14 0 -37 -11 -52 -24 -14 -14 -28 -23 -30
-21 -5 5 -85 -70 -118 -111 -14 -17 -32 -31 -40 -31 -8 0 -32 -10 -53 -23
l-38 -22 6 -72 c5 -59 3 -75 -9 -85 -9 -8 -16 -10 -16 -6 0 5 -9 0 -20 -10
-11 -10 -20 -26 -20 -35 0 -17 -50 -60 -70 -60 -11 0 -39 -56 -46 -93 -2 -10
-17 -46 -33 -80 -26 -55 -46 -114 -57 -170 -2 -10 -6 -27 -9 -37 -3 -10 -8
-28 -10 -40 -7 -39 -17 -64 -30 -77 -7 -7 -26 -50 -41 -95 -15 -46 -34 -99
-42 -118 -9 -19 -15 -40 -14 -47 2 -6 -2 -14 -8 -18 -5 -3 -10 -15 -10 -25 0
-15 30 -34 127 -82 138 -68 179 -76 260 -52 56 17 59 20 44 38 -15 18 -6 37
13 30 7 -3 25 11 40 30 21 28 25 40 17 54 -7 14 -6 25 5 41 9 12 14 25 11 28
-3 3 1 22 9 43 8 20 14 41 13 46 -5 27 3 44 20 44 13 0 24 13 34 39 18 44 62
80 102 83 29 3 41 18 46 58 5 31 37 64 90 90 21 11 39 26 39 33 0 7 18 23 39
35 30 17 40 30 46 58 5 32 9 35 30 30 20 -5 23 -3 20 13 -2 10 4 29 13 42 9
13 18 28 19 34 10 47 14 59 24 71 6 8 17 14 23 14 7 0 27 13 46 30 18 16 36
28 39 25 4 -2 36 11 71 28 63 32 97 64 104 102 2 11 10 34 17 50 19 47 19 55
-1 75 -18 18 -18 19 17 31 48 16 109 73 123 114 13 40 93 114 124 116 12 1 60
3 108 4 80 1 89 3 114 28 15 15 30 27 34 27 4 0 18 10 32 23 35 31 67 57 111
90 20 15 37 32 37 38 0 5 11 22 25 37 15 16 23 34 19 44 -5 17 -3 18 128 54 9
3 19 0 23 -6 5 -8 13 -6 26 6 12 10 42 18 84 22 58 4 70 2 105 -22 22 -14 44
-26 50 -26 5 0 10 -4 10 -8 0 -13 22 -15 209 -16 122 -1 181 3 195 11 12 7 29
16 39 19 10 4 50 22 90 41 40 19 91 36 114 38 52 5 127 -19 215 -68 54 -30 69
-44 78 -73 7 -19 9 -50 6 -67 -3 -18 -8 -48 -10 -67 -6 -41 -13 -74 -22 -102
-3 -11 -7 -30 -9 -41 -6 -39 -13 -65 -24 -85 -6 -11 -8 -22 -5 -25 9 -8 -76
-67 -97 -67 -17 0 -89 -62 -89 -77 0 -16 -51 -63 -62 -57 -5 3 -23 -8 -40 -26
-25 -28 -34 -32 -63 -27 -32 5 -33 4 -40 -31 -5 -26 -21 -49 -60 -84 -29 -27
-59 -63 -65 -79 -8 -18 -28 -38 -51 -49 -47 -24 -52 -33 -54 -89 -2 -42 -5
-47 -38 -63 -29 -15 -66 -55 -59 -65 8 -12 -1 -35 -15 -40 -10 -3 -26 -13 -35
-21 -15 -12 -23 -13 -47 -2 -32 13 -51 7 -51 -14 0 -8 -30 -33 -66 -57 -73
-47 -151 -122 -135 -127 6 -2 11 -13 11 -25 -1 -30 -53 -122 -71 -123 -34 -2
-39 -5 -39 -18 0 -25 -122 -144 -155 -152 -31 -8 -54 -29 -55 -52 0 -24 59
-99 96 -121 49 -29 214 -40 234 -16 7 8 20 15 29 15 9 0 42 22 72 50 29 27 59
50 64 50 6 0 37 27 69 60 41 42 64 59 76 55 11 -4 23 3 34 20 9 14 24 25 34
25 9 0 37 18 61 40 24 22 46 38 49 36 2 -3 22 12 44 32 22 20 46 40 53 45 18
10 135 164 135 177 0 9 15 14 23 8 10 -7 38 29 63 80 18 38 29 51 31 40 3 -10
8 -18 11 -18 11 0 34 17 33 24 0 3 2 19 6 36 4 24 8 28 19 19 11 -9 18 -7 32
8 20 24 74 53 98 53 9 0 35 19 58 43 23 23 55 52 71 64 17 12 44 33 60 48 17
14 62 42 102 62 40 19 78 42 84 49 6 8 18 14 26 14 11 0 14 7 10 22 -14 52 98
170 214 225 54 26 79 44 88 64 6 15 22 38 35 51 12 12 31 37 40 53 24 39 74
79 98 78 22 -2 24 13 2 25 -13 8 -13 12 3 39 16 29 49 46 116 59 23 4 28 8 31
26 1 7 5 19 9 26 5 6 6 12 2 12 -3 0 -1 9 5 20 6 11 15 18 20 15 4 -3 10 -1
12 5 2 6 14 12 27 15 30 6 33 9 35 37 2 36 66 62 133 53 35 -4 56 -12 62 -23
5 -9 8 -119 7 -244 -1 -223 -1 -227 -24 -246 -13 -11 -23 -22 -22 -24 1 -2 -3
-15 -8 -29 -27 -69 -32 -205 -10 -258 6 -14 12 -32 14 -39 4 -21 -43 -74 -104
-121 -18 -13 -32 -32 -32 -42 0 -11 -3 -19 -7 -20 -59 -4 -100 -12 -110 -21
-7 -6 -23 -8 -34 -5 -25 7 -79 -40 -79 -68 0 -17 -55 -45 -89 -45 -27 0 -40
-27 -31 -61 9 -30 75 -138 115 -186 27 -33 116 -81 193 -104 23 -6 42 -16 42
-20 0 -4 19 -10 43 -14 23 -4 50 -9 60 -11 11 -2 36 3 57 10 33 11 40 11 45
-1 4 -11 13 -13 33 -8 15 4 45 8 67 10 42 4 71 9 115 20 14 4 60 8 102 9 42 2
83 8 90 13 13 11 76 10 153 -1 22 -3 60 -8 85 -11 25 -3 70 -14 100 -25 30
-10 78 -21 105 -24 42 -4 285 -45 375 -63 46 -9 195 -10 211 -2 9 5 24 25 34
45 17 35 16 37 -4 65 -12 16 -22 39 -22 51 -2 30 11 119 18 131 3 4 -3 17 -12
28 -10 10 -19 33 -20 50 -4 42 -14 49 -76 55 -30 3 -61 8 -69 11 -8 3 -28 7
-44 9 -39 5 -116 32 -144 50 -12 8 -48 20 -80 25 -31 6 -61 14 -67 17 -5 4
-12 7 -15 8 -3 0 -23 6 -45 12 -45 12 -75 18 -155 27 -63 7 -134 29 -170 52
-25 17 -59 51 -61 62 0 3 -2 44 -3 91 -1 47 -4 90 -6 95 -2 6 2 20 9 33 15 27
23 162 11 181 -5 8 0 35 10 67 22 64 29 112 44 314 2 25 5 50 7 55 2 6 -3 27
-9 47 -7 20 -14 47 -15 60 -2 13 -11 39 -22 58 -22 41 -27 60 -14 60 5 0 9 -4
9 -10 0 -20 37 -9 50 15 7 14 16 25 19 25 3 0 13 5 21 10 13 8 12 11 -5 24
-20 14 -20 15 -1 29 13 9 17 21 14 35 -4 14 -1 23 11 27 10 3 17 18 19 37 4
48 6 61 17 78 5 8 8 29 6 47 -2 27 5 40 44 77 44 43 46 47 39 83 -18 87 -6
354 20 451 8 30 11 65 7 80 -8 31 -6 180 3 232 4 19 8 49 10 65 2 17 7 48 11
70 4 22 8 47 10 55 1 8 -2 21 -8 28 -5 7 -5 12 0 12 5 0 8 18 7 41 -1 26 3 42
12 46 9 3 11 10 5 21 -16 30 -9 124 12 175 19 46 20 50 4 62 -20 14 -23 37 -4
29 7 -2 24 4 37 16 13 11 19 20 15 20 -5 0 -4 5 3 12 19 19 14 48 -10 57 l-22
8 23 6 c21 5 23 10 18 59 -9 87 -12 90 -59 71 -36 -14 -42 -15 -52 -1 -8 10
-27 14 -65 13 -41 -1 -59 3 -80 20 -19 15 -38 20 -76 19 -40 -1 -54 3 -70 21
-11 12 -26 20 -32 18z m-7476 -1279 c59 -20 182 -80 204 -100 8 -8 20 -14 25
-14 10 0 60 -39 104 -80 15 -14 34 -39 43 -57 9 -17 24 -38 33 -47 13 -13 14
-20 4 -31 -8 -9 -9 -25 -5 -42 5 -16 9 -34 11 -41 1 -6 11 -31 22 -55 45 -97
62 -137 62 -144 0 -5 9 -14 19 -20 11 -7 22 -26 26 -43 4 -18 13 -30 23 -30
12 0 10 -5 -8 -25 -24 -25 -30 -40 -34 -82 -1 -13 -6 -26 -9 -30 -4 -3 -7 -14
-7 -24 0 -22 -15 -32 -55 -34 -17 -2 -41 -8 -53 -14 -12 -6 -25 -11 -29 -10
-4 1 -10 1 -13 -1 -3 -1 -16 -3 -29 -6 -43 -8 -191 -104 -191 -125 0 -5 -12
-15 -27 -22 -27 -12 -82 -46 -93 -57 -18 -19 -115 -58 -124 -50 -7 5 -38 10
-71 11 -33 1 -72 8 -87 15 -15 8 -36 14 -48 14 -11 0 -23 7 -26 15 -4 8 -11
15 -17 15 -15 0 -257 122 -257 130 0 4 -18 12 -40 19 -22 6 -40 14 -40 16 0 2
-7 31 -16 64 -25 100 -26 104 -25 171 0 50 4 68 18 80 30 24 53 63 53 87 0 13
10 32 23 43 18 16 24 31 24 71 1 29 6 56 12 62 6 6 11 19 11 29 0 10 5 18 10
18 6 0 10 7 10 15 0 8 4 15 9 15 5 0 15 16 21 36 13 37 125 158 139 149 5 -2
26 9 46 25 21 17 42 30 47 30 5 0 29 9 53 20 24 11 52 21 62 23 10 2 32 10 48
19 34 18 70 16 142 -8z m529 -1379 c19 -14 34 -30 34 -35 0 -5 6 -7 14 -4 21
8 25 -20 21 -131 -6 -136 -7 -293 -2 -392 2 -45 1 -87 -3 -92 -12 -21 -94 56
-136 127 -15 25 -37 55 -49 66 -12 12 -35 41 -53 66 -17 25 -43 59 -57 75 -62
70 -71 82 -95 118 -14 20 -31 37 -37 37 -58 0 92 143 185 175 26 10 56 20 67
25 27 10 70 -4 111 -35z"/>
</g>
</svg>
